<svg id="Layer_1" data-name="Layer 1" xmlns="http://www.w3.org/2000/svg" viewBox="0 0 233 233"><defs><style>.cls-1{fill:#00e3fe;}.cls-2{fill:#fff;}</style></defs><title>Artboard 1</title><rect class="cls-1" x="34.89" y="35.23" width="163.4" height="163.4" transform="translate(-48.54 116.69) rotate(-45)"/><path class="cls-2" d="M116.59,2.1,231.43,116.93,116.59,231.77,1.76,116.93,116.59,2.1m0-1.41-.71.71L1.05,116.23l-.71.71.71.71L115.89,232.48l.71.71.71-.71L232.14,117.64l.71-.71-.71-.71L117.3,1.39l-.71-.71Z"/><rect class="cls-2" x="36.21" y="83.89" width="108.53" height="13.85" rx="5.73" ry="5.73" transform="translate(-37.72 90.58) rotate(-45)"/><rect class="cls-2" x="62.62" y="123.03" width="47.08" height="13.85" rx="5.73" ry="5.73" transform="translate(-66.66 98.99) rotate(-45)"/><rect class="cls-2" x="83.99" y="150.01" width="20.02" height="13.85" rx="5.73" ry="5.73" transform="translate(-83.44 112.44) rotate(-45)"/><rect class="cls-2" x="101.4" y="167.42" width="20.02" height="13.85" rx="5.73" ry="5.73" transform="translate(-90.65 129.85) rotate(-45)"/></svg>